# xmcd
#
# Track frame offsets:
# 150
# 24502
# 39921
# 60159
# 83548
# 104303
# 131477
# 149900
# 178155
# 199495
# 227614
# 260823
# 278570
# 297470
# 320169
# 343157
#
# Disc length: 4810 seconds
#
#
# Revision: 2
# Processed by: cddbd v1.5.2PL0 Copyright (c) Steve Scherf et al.
# Submitted via: FreeRIP 2.942 
#
DISCID=f512c810
DTITLE=Paco De Lucia - The Best Of Paco De Lucia
DYEAR=2001
DGENRE=Jazz
TTITLE0=Almoraima
TTITLE1=Barrio La Viña
TTITLE2=Río Ancho
TTITLE3=Fuente Y Caudal
TTITLE4=La Barrosa
TTITLE5=Entre Dos Aguas
TTITLE6=Cáncion Del Fuego Fátuo
TTITLE7=Sólo Quiero Caminar
TTITLE8=Monasterio De Sal
TTITLE9=Zyryab
TTITLE10=Palenque
TTITLE11=Callejón Del Muro
TTITLE12=Castro Marin
TTITLE13=Tio Sabas
TTITLE14=Gloria Al Niño Ricardo
TTITLE15=Chanela
EXTD=YEAR: 2001
EXTT0=
EXTT1=
EXTT2=
EXTT3=
EXTT4=
EXTT5=
EXTT6=
EXTT7=
EXTT8=
EXTT9=
EXTT10=
EXTT11=
EXTT12=
EXTT13=
EXTT14=
EXTT15=
PLAYORDER=
